<?xml version="1.0" encoding="UTF-8" standalone="no"?>
<svg width="222px" height="28px" viewBox="0 0 222 28" version="1.1" xmlns="http://www.w3.org/2000/svg" xmlns:xlink="http://www.w3.org/1999/xlink" xmlns:sketch="http://www.bohemiancoding.com/sketch/ns">
    <!-- Generator: Sketch 3.3.1 (12002) - http://www.bohemiancoding.com/sketch -->
    <title>Shape + K12Exchange</title>
    <desc>Created with Sketch.</desc>
    <defs></defs>
    <g id="Page-1" stroke="none" stroke-width="1" fill="none" fill-rule="evenodd" sketch:type="MSPage">
        <g id="Artboard-1" sketch:type="MSArtboardGroup" transform="translate(-59.000000, -1149.000000)" fill="#B80000">
            <g id="Shape-+-K12Exchange" sketch:type="MSLayerGroup" transform="translate(59.000000, 1149.000000)">
                <path d="M27.1588267,8.75847359 C27.2025181,8.42201631 27.2614833,8.08936935 27.2614833,7.74160207 C27.2614833,3.46630233 23.775847,0 19.472488,0 C16.9281032,0 14.6899233,1.23043088 13.2694053,3.10722505 C12.7578874,2.9843876 12.2311565,2.90310078 11.6834928,2.90310078 C7.91830471,2.90310078 4.86812201,5.93472424 4.86812201,9.67700258 C4.86812201,9.7828448 4.89477498,9.87737702 4.89854777,9.98321923 C2.0746719,10.8091514 0,13.3757949 0,16.4509044 C0,20.1931827 3.0501827,23.2248062 6.81537081,23.2248062 L23.3669856,23.2248062 C27.6703447,23.2248062 31.1559809,19.7603788 31.1559809,15.4832041 C31.1559809,12.5839137 29.5339226,10.0852511 27.1588267,8.75847359 L27.1588267,8.75847359 Z M21.906549,17.4186047 L14.1175538,17.4186047 L14.1175538,19.3540052 L9.24943182,16.4509044 L14.1175538,13.5478036 L14.1175538,15.4832041 L21.906549,15.4832041 L21.906549,17.4186047 L21.906549,17.4186047 Z M17.038427,13.5478036 L17.038427,11.6124031 L9.24943182,11.6124031 L9.24943182,9.67700258 L17.038427,9.67700258 L17.038427,7.74160207 L21.906549,10.6447028 L17.038427,13.5478036 L17.038427,13.5478036 Z" id="Shape" sketch:type="MSShapeGroup"></path>
                <path d="M52.1060884,22.257107 L54.9291541,22.257107 L46.3447299,10.6541192 L54.3242114,1.74677496 L51.5875661,1.74677496 L40.7562122,13.5548661 L40.7562122,1.74677496 L38.4516688,1.74677496 L38.4516688,22.257107 L40.7562122,22.257107 L40.7562122,16.8951202 L44.673936,12.5293495 L52.1060884,22.257107 Z M62.3901133,22.257107 L62.3901133,1.74677496 L56.0238122,1.74677496 L56.0238122,3.97361101 L60.1143767,3.97361101 L60.1143767,22.257107 L62.3901133,22.257107 Z M74.1720914,1.65887354 C71.7811276,1.65887354 69.3325503,2.71369062 67.3736884,4.50101955 L68.3819261,6.37624991 C69.9951065,4.7940243 72.0403888,3.82710864 73.8840235,3.82710864 C76.4190212,3.82710864 77.9169744,5.02842809 77.9169744,7.02086035 C77.9169744,8.3393817 76.8511231,10.2439125 75.1515223,11.9726405 L67.6041427,20.3232757 L67.6041427,22.257107 L81.4602099,22.257107 L81.4602099,20.030271 L70.5424356,20.030271 L76.7358959,13.3497628 C78.8675986,11.0350253 80.3079382,8.66168691 80.3079382,6.69855513 C80.3079382,3.62200532 77.8881676,1.65887354 74.1720914,1.65887354 L74.1720914,1.65887354 Z M99.6949095,4.00291149 L99.6949095,1.74677496 L86.0116831,1.74677496 L86.0116831,22.257107 L100.069398,22.257107 L100.069398,20.030271 L88.3162265,20.030271 L88.3162265,12.9981571 L98.4850242,12.9981571 L98.4850242,10.7420206 L88.3162265,10.7420206 L88.3162265,4.00291149 L99.6949095,4.00291149 Z M109.316378,12.6758519 L105.283427,6.81575703 L102.690816,6.81575703 L107.847232,14.3166785 L102.316328,22.257107 L104.851325,22.257107 L109.316378,15.957505 L113.637397,22.257107 L116.258815,22.257107 L110.814331,14.3166785 L115.884327,6.81575703 L113.406943,6.81575703 L109.316378,12.6758519 Z M125.678636,6.75715608 C121.300004,6.75715608 118.160063,9.95090779 118.160063,14.5510823 C118.160063,19.1512567 121.271197,22.3450084 125.678636,22.3450084 C128.300054,22.3450084 130.40295,21.3487923 131.756869,19.6786653 L130.460564,18.2722425 C129.394712,19.5614634 127.752725,20.2646748 125.765057,20.2646748 C122.625116,20.2646748 120.378186,17.9206368 120.378186,14.5510823 C120.378186,11.1815277 122.625116,8.86679023 125.765057,8.86679023 C127.608691,8.86679023 129.135451,9.54070115 130.287723,10.6541192 L131.526415,9.04259308 C130.143689,7.57756936 128.127214,6.72785561 125.678636,6.75715608 L125.678636,6.75715608 Z M144.14379,6.72785561 C141.349531,6.75715608 139.275442,7.87057411 138.238398,10.273213 L138.238398,0.516155039 L135.991468,0.516155039 L135.991468,22.257107 L138.238398,22.257107 L138.238398,14.6682842 C138.238398,11.3573306 140.139646,9.04259308 143.366007,9.01329261 C146.045038,9.01329261 147.658219,10.6248187 147.658219,13.3497628 L147.658219,22.257107 L149.905149,22.257107 L149.905149,12.7344529 C149.905149,9.01329261 147.773446,6.72785561 144.14379,6.72785561 L144.14379,6.72785561 Z M164.337352,22.257107 L166.526668,22.257107 L166.497861,12.0605419 C166.469054,8.74958834 164.394965,6.72785561 160.650082,6.72785561 C158.057471,6.72785561 156.415484,7.48966794 154.456622,8.80818929 L155.407246,10.4783163 C156.99162,9.3648983 158.547186,8.72028786 160.21798,8.72028786 C162.897012,8.72028786 164.279738,10.0681097 164.279738,12.3242462 L164.279738,13.2325609 L159.296163,13.2325609 C155.724121,13.2618614 153.621225,14.9612889 153.621225,17.6569325 C153.621225,20.3232757 155.6377,22.3743089 158.777641,22.3743089 C161.197411,22.3743089 163.127466,21.5538956 164.337352,19.8837686 L164.337352,22.257107 Z M159.209743,20.3818767 C157.07804,20.3818767 155.724121,19.2684586 155.724121,17.5690311 C155.724121,15.8696036 157.049233,15.0784908 159.584231,15.0784908 L164.308545,15.0784908 L164.308545,16.9244207 C163.732409,19.0633553 161.773547,20.3818767 159.209743,20.3818767 L159.209743,20.3818767 Z M179.662565,6.72785561 C176.897113,6.75715608 174.851831,7.87057411 173.78598,10.2146121 L173.78598,6.81575703 L171.53905,6.81575703 L171.53905,22.257107 L173.78598,22.257107 L173.78598,13.9650728 C174.045241,11.0350253 175.888875,9.04259308 178.884782,9.01329261 C181.563814,9.01329261 183.176994,10.6248187 183.176994,13.3497628 L183.176994,22.257107 L185.423924,22.257107 L185.423924,12.7344529 C185.423924,9.01329261 183.292221,6.72785561 179.662565,6.72785561 L179.662565,6.72785561 Z M203.658623,6.81575703 L201.411694,6.81575703 L201.411694,9.95090779 C200.317035,7.89987458 198.358174,6.72785561 195.765562,6.72785561 C191.703804,6.75715608 188.909546,9.80440541 188.909546,14.1115751 C188.909546,18.5066463 191.732611,21.5831961 195.823176,21.5831961 C198.38698,21.5831961 200.345842,20.4111771 201.411694,18.3601439 L201.411694,20.7041819 C201.411694,23.9272341 199.251184,25.9782673 195.938403,25.9782673 C193.921928,25.9489668 192.337554,25.2750559 190.839601,24.0151355 L189.802556,25.7731639 C191.646191,27.1795867 193.63386,27.9706995 196.024823,28 C200.63391,28 203.658623,25.157854 203.658623,20.6455809 L203.658623,6.81575703 Z M196.226471,19.6493648 C193.172951,19.6493648 191.041248,17.3639278 191.012441,14.1994766 C191.041248,11.0057249 193.172951,8.72028786 196.226471,8.72028786 C199.251184,8.72028786 201.411694,10.9764244 201.411694,14.1994766 C201.411694,17.3639278 199.251184,19.6493648 196.226471,19.6493648 L196.226471,19.6493648 Z M214.749238,6.75715608 C210.341799,6.75715608 207.230666,9.95090779 207.230666,14.5510823 C207.230666,19.1512567 210.312992,22.3450084 214.778045,22.3450084 C217.313043,22.3450084 219.444746,21.4073933 220.885085,19.7665667 L219.646393,18.4187449 C218.465315,19.6786653 216.823327,20.3525762 214.950886,20.3525762 C212.012593,20.3525762 209.852084,18.4480454 209.448789,15.4300965 L221.835709,15.4300965 C222.066164,10.1853116 219.646393,6.72785561 214.749238,6.75715608 L214.749238,6.75715608 Z M209.448789,13.5548661 C209.79447,10.6248187 211.868559,8.72028786 214.749238,8.72028786 C217.716338,8.72028786 219.6752,10.5955182 219.819234,13.5548661 L209.448789,13.5548661 Z" id="K12Exchange" sketch:type="MSShapeGroup"></path>
            </g>
        </g>
    </g>
</svg>